<?xml version="1.0" encoding="UTF-8"?>
<svg id="Layer_2" data-name="Layer 2" xmlns="http://www.w3.org/2000/svg" viewBox="0 0 1456.24 919.24">
  <defs>
    <style>
      .cls-1 {
        fill: #231f20;
      }
    </style>
  </defs>
  <g id="Layer_1-2" data-name="Layer 1">
    <g>
      <path class="cls-1" d="M942.07,447.17h424.12l-5.88-7.95c-49.92-67.51-115.87-123.27-190.72-161.27-37.85-19.21-78.04-34-119.46-43.95-42.37-10.18-86.21-15.34-130.32-15.34h-22.05v184.2c0,24.43,19.88,44.31,44.31,44.31Z"/>
      <path class="cls-1" d="M1455.2,648.34h0c-13.79-62.18-37.65-120.7-70.91-173.92l-1.46-2.34h-440.76c-38.17,0-69.22-31.05-69.22-69.22v-184.2H292.52c2.81-10.3,5.8-20.28,8.95-29.9,30.8-94.1,76.56-153.88,124.14-153.88,30.15,0,55.13,24.34,70.78,44.75,20.44,26.68,38.76,64.11,53.48,109.14h36.58c-16.46-53.57-37.92-98.44-62.38-130.35C494.78,20.19,460.74,0,425.61,0c-46.66,0-89.74,34.37-124.56,99.4-30.28,56.54-52.31,131.98-64.01,218.95h-108.74c-9.64,0-17.44,7.81-17.44,17.44s7.8,17.44,17.44,17.44h104.67c-2.88,29.08-4.56,58.87-5.02,88.94H17.44c-9.64,0-17.44,7.81-17.44,17.44s7.8,17.44,17.44,17.44h210.5c.47,30.08,2.15,59.86,5.03,88.95h-104.67c-9.64,0-17.44,7.8-17.44,17.44s7.8,17.44,17.44,17.44h108.74c11.7,86.97,33.73,162.41,64.01,218.95,34.82,65.03,77.9,99.4,124.56,99.4,35.13,0,69.17-20.2,98.46-58.41,24.46-31.91,45.91-76.79,62.38-130.35h-36.59c-14.72,45.04-33.03,82.46-53.47,109.14-15.65,20.41-40.63,44.75-70.78,44.75-47.6,0-93.35-59.78-124.15-153.88-3.14-9.61-6.12-19.6-8.94-29.9h280.33c.35,0,.71,0,1.07,0h.06s839.32,0,839.32,0c23.68,0,42.95-19.21,42.95-42.81,0-3.12-.35-6.29-1.05-9.42ZM269.72,581.4c-.41-3.45-.8-6.93-1.17-10.4h406.49c6.87,0,12.46,5.59,12.46,12.46s-5.59,12.46-12.46,12.46h-403.47c-.65-4.8-1.27-9.63-1.85-14.51ZM262.68,459.62c0-4.16.03-8.32.09-12.47h329.14c6.87,0,12.46,5.59,12.46,12.46s-5.59,12.46-12.46,12.46h-329.14c-.05-4.14-.08-8.29-.08-12.45ZM271.58,323.33h403.47c6.87,0,12.46,5.59,12.46,12.46s-5.59,12.46-12.46,12.46h-406.49c.37-3.47.76-6.94,1.17-10.39.58-4.88,1.2-9.71,1.85-14.52Z"/>
    </g>
  </g>
</svg>