<?xml version="1.0" encoding="UTF-8"?>
<svg xmlns="http://www.w3.org/2000/svg" viewBox="0 0 1211.92 1318.89">
  <!-- Portal-only silhouette derived from Source/Plane.svg.
       The separate baked-in swoosh is intentionally omitted because the
       portal draws its own direction-aware signal trail. -->
  <path d="M1211.92,1294.78c-25.35-18.42-46.42-40.05-63.58-65.47-27.44-40.65-50-84.22-75.28-126.15-21.87-36.28-44.25-72.24-69.95-105.99-13.49-17.71-30.64-31.89-47.31-46.4-21.03-18.3-42.69-35.84-66.61-50.41-5.14-3.13-7.02-2.17-10.01,2.51-44.92,70.39-92.63,138.93-138.8,208.5-7.86,11.84-7.94,11.3-18.93,2.62-16.31-12.88-17.61-29.3-12.8-47.77,20.13-77.29,40.09-154.62,60.23-231.91,1.65-6.33,1.58-10.48-4.81-15.06-47.49-33.99-94.27-68.94-139.87-105.43-44.5-35.61-88.31-72.07-130.6-110.3-2.88-2.6-4.57-3.38-7.81-.39-31.2,28.82-64.07,55.97-92.39,87.71-18.92,21.21-33.78,45.68-49.68,69.24-67.65,100.27-135.04,200.72-202.82,300.91-15.92,23.53-30.42,48.14-48.94,69.81-12.98,15.18-9.27,14.58-23.87,1.73-14.46-12.73-25.17-27.82-22.12-48.4,1.95-13.17,7.16-25.58,12.03-37.93,58.5-148.62,117.09-297.2,175.84-445.72,1.94-4.91,1.42-6.35-3.52-8.35-22.84-9.23-43.03-22.8-60.67-39.9-10.85-10.52-22.3-20.55-31.55-32.62-5.41-7.06-5.47-25.51.58-31.86,11.61-12.19,21.59-25.81,34.52-36.89,12.2-10.45,24.32-12.71,37.07-1.75,19.64,16.88,40.25,32.61,55.25,54.19,1.11,1.6,2.88,2.75,4.63,4.38,5-6.99,8.2-14.46,10.44-22.13,6.7-23.04,15.05-45.47,24.2-67.6,1.91-4.63,1.27-7.22-2.07-10.56-64.96-64.8-130.33-129.2-194.54-194.73C61.19,164.7,23.75,110.31,3.3,45.47,1.09,38.45-.12,31.5,0,24.17.31,6.48,11.56-2.34,29.03.54c53.25,8.77,97.86,35.81,140.62,66.47,64.1,45.96,119.52,101.77,175.81,156.53,24.85,24.17,49.25,48.81,73.47,73.61,4.92,5.04,8.49,6.57,15.19,3.06,13.9-7.29,29.61-9.47,44.49-14.03,7.4-2.27,14.67-4.63,21.89-9.45-20.99-16.26-39.97-33.71-57.7-52.53-9.61-10.2-10.04-23.32-1.44-34.33,9.69-12.41,19.28-24.94,32.4-33.91,14.92-10.2,29.43-14.39,47.03,1.45,27.24,24.51,55.96,47.56,74.51,80.08,2.83,4.96,5.35,1.23,7.63.28,39.69-16.64,79.29-33.51,118.97-50.19,119.33-50.14,238.67-100.25,358.06-150.23,9.55-4,19.72-6.5,29.33-10.39,17.33-7.01,33.34-3.9,48.99,4.97,11.23,6.36,20.97,14.44,29.98,23.64,4.23,4.32,3.73,6.37-1.01,9.81-34.52,25.11-70.23,48.47-105.61,72.32-114.75,77.37-229.28,155.06-344.75,231.35-36.73,24.27-66.37,56.48-97.18,87.38-6.98,7-13.52,14.5-21.65,20.27-2.51,1.78-3.57,2.9-.47,5.77,31.86,29.52,60.75,61.94,90.41,93.59,44.36,47.34,83.87,98.61,120.01,152.47,4.67,6.96,9.49,13.84,13.8,21.03,2.42,4.03,4.36,5.06,9.58,3.98,79.04-16.47,156.58-39.07,235.2-57.26,21.32-4.93,35.6,6,49.35,18.93,5.02,4.72-2.13,5.72-3.89,6.96-25.86,18.22-51.75,36.41-78.08,53.94-44.65,29.72-87.72,61.85-134.15,88.88-4.64,2.7-3.52,4.48-.76,7.74,17.11,20.18,33.96,40.57,51.02,60.79,40.53,48.02,75.3,99.99,106.54,154.43,22.77,39.67,43.18,80.6,65.3,120.61,17.31,31.3,38.94,59.14,67.15,81.52,1.17.93,2.9,1.74,2.83,4.74Z"/>
</svg>
